<svg width="22" height="23" viewBox="0 0 22 23" fill="none" xmlns="http://www.w3.org/2000/svg">
<path d="M8 8.75403H8.01M14 14.754H14.01M15 7.75403L7 15.754M8.5 8.75403C8.5 9.03017 8.27614 9.25403 8 9.25403C7.72386 9.25403 7.5 9.03017 7.5 8.75403C7.5 8.47789 7.72386 8.25403 8 8.25403C8.27614 8.25403 8.5 8.47789 8.5 8.75403ZM14.5 14.754C14.5 15.0302 14.2761 15.254 14 15.254C13.7239 15.254 13.5 15.0302 13.5 14.754C13.5 14.4779 13.7239 14.254 14 14.254C14.2761 14.254 14.5 14.4779 14.5 14.754ZM21 11.754C21 17.2769 16.5228 21.754 11 21.754C5.47715 21.754 1 17.2769 1 11.754C1 6.23118 5.47715 1.75403 11 1.75403C16.5228 1.75403 21 6.23118 21 11.754Z" stroke="#20AB76" stroke-width="2" stroke-linecap="round" stroke-linejoin="round"/>
</svg>
