<svg width="24" height="25" viewBox="0 0 24 25" fill="none" xmlns="http://www.w3.org/2000/svg">
<path d="M12 22.4401C17.5228 22.4401 22 17.9629 22 12.4401C22 6.91722 17.5228 2.44006 12 2.44006C6.47715 2.44006 2 6.91722 2 12.4401C2 17.9629 6.47715 22.4401 12 22.4401Z" stroke="#20AB76" stroke-width="2" stroke-linecap="round" stroke-linejoin="round"/>
<path d="M12 18.4401C15.3137 18.4401 18 15.7538 18 12.4401C18 9.12635 15.3137 6.44006 12 6.44006C8.68629 6.44006 6 9.12635 6 12.4401C6 15.7538 8.68629 18.4401 12 18.4401Z" stroke="#20AB76" stroke-width="2" stroke-linecap="round" stroke-linejoin="round"/>
<path d="M12 14.4401C13.1046 14.4401 14 13.5446 14 12.4401C14 11.3355 13.1046 10.4401 12 10.4401C10.8954 10.4401 10 11.3355 10 12.4401C10 13.5446 10.8954 14.4401 12 14.4401Z" stroke="#20AB76" stroke-width="2" stroke-linecap="round" stroke-linejoin="round"/>
</svg>
