<svg width="34" height="21" viewBox="0 0 34 21" fill="none" xmlns="http://www.w3.org/2000/svg">
<path fill-rule="evenodd" clip-rule="evenodd" d="M14.0792 2.70117C13.2036 1.20768 11.0147 1.20768 10.1391 2.70117L2.30816 16.0585C1.43258 17.552 2.52706 19.4189 4.27821 19.4189H14.0599H19.9401H29.7218C31.4729 19.4189 32.5674 17.552 31.6918 16.0585L23.8609 2.70117C22.9853 1.20768 20.7964 1.20768 19.9208 2.70117L17 7.68324L14.0792 2.70117Z" stroke="url(#paint0_linear_8_263)" stroke-width="3"/>
<path d="M17.3378 13.1861C17.3378 13.5672 17.2075 13.8409 17.0885 13.9833C17.0505 14.0287 17.0206 14.0547 16.9999 14.0693C16.9793 14.0547 16.9494 14.0287 16.9114 13.9833C16.7924 13.8409 16.6621 13.5671 16.6621 13.1861C16.6621 13.2026 16.6624 13.2013 16.6671 13.1808C16.6801 13.1239 16.7268 12.9191 16.8945 12.5373C16.9274 12.4624 16.9626 12.3858 16.9999 12.3078C17.0373 12.3858 17.0725 12.4624 17.1054 12.5373C17.2731 12.9191 17.3198 13.1239 17.3328 13.1808C17.3375 13.2013 17.3378 13.2026 17.3378 13.1861ZM16.9673 14.0861C16.9672 14.0857 16.9705 14.0841 16.9774 14.0828C16.9708 14.0859 16.9674 14.0866 16.9673 14.0861ZM17.0225 14.0828C17.0294 14.0841 17.0327 14.0857 17.0326 14.0861C17.0325 14.0866 17.0291 14.0859 17.0225 14.0828Z" stroke="url(#paint1_linear_8_263)" stroke-width="5"/>
<defs>
<linearGradient id="paint0_linear_8_263" x1="17" y1="1.58105" x2="17" y2="19.4189" gradientUnits="userSpaceOnUse">
<stop stop-color="#5B3962"/>
<stop offset="1" stop-color="#1CB174"/>
</linearGradient>
<linearGradient id="paint1_linear_8_263" x1="17" y1="8.10815" x2="16.9999" y2="16.581" gradientUnits="userSpaceOnUse">
<stop stop-color="#446568"/>
<stop offset="1" stop-color="#21A672"/>
</linearGradient>
</defs>
</svg>
